<?xml version="1.0" standalone="no"?>
<!DOCTYPE svg PUBLIC "-//W3C//DTD SVG 20010904//EN"
 "http://www.w3.org/TR/2001/REC-SVG-20010904/DTD/svg10.dtd">
<svg version="1.0" xmlns="http://www.w3.org/2000/svg"
 width="512.000000pt" height="512.000000pt" viewBox="0 0 512.000000 512.000000"
 preserveAspectRatio="xMidYMid meet">
<metadata>
Created by potrace 1.14, written by Peter Selinger 2001-2017
</metadata>
<g transform="translate(0.000000,512.000000) scale(0.100000,-0.100000)"
fill="#000000" stroke="none">
<path d="M3888 4125 c-2 -2 -46 -5 -98 -9 -83 -5 -119 -10 -226 -32 -140 -28
-326 -108 -439 -189 -161 -115 -281 -302 -313 -490 -15 -89 -7 -257 17 -335
60 -195 175 -345 365 -472 153 -102 311 -173 622 -278 304 -103 458 -180 523
-260 71 -88 90 -246 43 -352 -57 -129 -220 -208 -432 -209 -385 -1 -594 150
-613 446 l-3 50 -312 3 -313 2 2 -57 c1 -60 31 -215 50 -268 106 -288 354
-499 714 -608 53 -16 91 -25 190 -43 104 -19 369 -24 490 -10 277 33 499 127
656 277 105 102 151 178 195 326 39 132 39 328 -2 472 -58 206 -206 380 -439
519 -144 85 -307 151 -620 252 -259 83 -439 191 -490 295 -31 62 -28 194 5
259 30 58 108 132 170 158 148 64 372 68 520 11 153 -60 237 -169 257 -335 l8
-63 310 0 310 0 -1 50 c-9 324 -201 607 -518 760 -150 72 -291 108 -476 121
-47 3 -100 7 -117 8 -18 2 -34 2 -35 1z"/>
<path d="M193 4082 l-112 -3 2 -1517 2 -1516 308 -1 c203 0 308 3 309 10 1 5
2 240 4 520 1 281 3 517 3 525 1 13 45 15 329 16 301 0 429 5 507 20 192 35
311 76 434 149 70 42 111 75 180 145 114 117 176 228 216 385 25 103 26 110
29 226 14 539 -319 924 -879 1019 -33 6 -118 13 -190 16 -145 6 -967 11 -1142
6z m1177 -515 c227 -45 343 -159 396 -388 10 -40 6 -181 -6 -234 -32 -141
-123 -241 -262 -289 -82 -27 -96 -28 -444 -33 -323 -4 -342 -3 -345 14 -3 14
-3 890 0 928 1 11 610 12 661 2z"/>
</g>
</svg>
