<?xml version="1.0" standalone="no"?>
<!DOCTYPE svg PUBLIC "-//W3C//DTD SVG 20010904//EN"
 "http://www.w3.org/TR/2001/REC-SVG-20010904/DTD/svg10.dtd">
<svg version="1.0" xmlns="http://www.w3.org/2000/svg"
 width="256.000000pt" height="256.000000pt" viewBox="0 0 256.000000 256.000000"
 preserveAspectRatio="xMidYMid meet">
<metadata>
Created by potrace 1.11, written by Peter Selinger 2001-2013
</metadata>
<g transform="translate(0.000000,256.000000) scale(0.100000,-0.100000)"
fill="#000000" stroke="none">
<path d="M955 2073 c-16 -2 -60 -8 -97 -14 l-68 -11 0 -794 0 -794 105 0 105
0 0 299 0 298 173 6 c197 6 268 21 369 74 159 83 238 232 238 448 0 153 -39
254 -132 348 -65 66 -152 110 -257 133 -61 13 -352 18 -436 7z m377 -184 c72
-16 118 -40 161 -88 46 -51 67 -122 67 -226 0 -248 -121 -335 -467 -335 l-93
0 0 324 c0 250 3 325 13 329 24 10 267 7 319 -4z"/>
</g>
</svg>
